<?xml version="1.0" encoding="UTF-8"?>
<svg id="_Шар_1" data-name="Шар 1" xmlns="http://www.w3.org/2000/svg" viewBox="0 0 422.96 259.38">
  <defs>
    <style>
      .cls-1 {
        fill: #fd6d6a;
        stroke-width: 0px;
      }
    </style>
  </defs>
  <g id="Logo">
    <path class="cls-1" d="M162.39,152.71v62.88h-39.4v-56.91c0-4.37-.8-7.56-2.79-9.55-1.98-1.99-4.57-2.78-7.75-2.78-3.99,0-8.36,1.78-11.55,4.57v64.67h-39.41v-56.91c0-4.37-.79-7.56-2.78-9.55-1.98-1.99-4.57-2.78-7.75-2.78-3.99,0-8.36,1.78-11.56,4.57v64.67H0v-99.49h38.61v6.96l.4.21c6.97-4.98,16.12-9.36,27.26-9.36,10.16,0,21.3,3.77,27.67,12.34,11.34-8.77,22.28-12.34,33.63-12.34s19.7,3.57,25.67,9.75c5.97,6.17,9.15,14.73,9.15,29.05Z"/>
    <path class="cls-1" d="M192.14,29.79c10.68,0,19.34,8.66,19.34,19.33s-8.66,19.34-19.34,19.34-19.33-8.66-19.33-19.34,8.66-19.33,19.33-19.33ZM243.62,42.66c-3.36-20.45-19.13-36.77-40.29-41.44-20.48-4.51-42.28,3.78-54.14,20.77-7.06,10.12-10.38,21.28-8.51,33.5,1.18,7.78,4.51,14.94,8.01,21.98,6.8,13.67,15,26.55,23.74,39.11v99.01h39.4v-85.12c-7.24,4.8-15.38,10.33-19.88,12.95,2.79-3.81,8.63-11.68,12.76-17.31.53-.73,1.02-1.41,1.48-2.04.25-.34.49-.68.75-1.03.68-.96,1.37-1.91,2.06-2.87.95-1.33,1.89-2.66,2.83-3.99.19-.27.38-.53.57-.8,1.98-2.8,3.94-5.61,5.87-8.44,8.26-12.08,15.62-24.67,21.27-38.14,3.53-8.39,5.59-16.95,4.08-26.14Z"/>
    <path class="cls-1" d="M311.45,182.96c0,23.08-18.5,34.82-45.97,34.82-12.54,0-30.64-2.19-43.19-7.96v-30.65c15.33,8.36,33.64,11.56,41.4,11.56,4.78,0,7.56-1.4,7.56-4.58s-2.98-4.59-11.14-5.97c-8.16-1.4-19.7-3.78-27.66-8.76s-11.74-12.34-11.74-22.88c0-22.5,17.51-34.63,44.58-34.63,11.93,0,28.05,2.78,40.19,8.16v28.65c-14.72-6.76-30.25-9.55-37.61-9.55-4.97,0-6.97,1.59-6.97,4.38,0,3.39,2.99,4.18,10.95,5.57s18.91,3.39,27.27,8.35c8.35,4.98,12.33,12.94,12.33,23.49Z"/>
    <path class="cls-1" d="M422.96,116.1l-62.3,143.28h-39.4l26.28-55.13-39.01-88.15h40.59l9.36,25.86c2.79,7.57,5.57,15.33,7.95,22.49h.41c2.79-7.55,5.77-15.12,8.75-22.68l10.15-25.67h37.22Z"/>
  </g>
</svg>