<svg width="24" height="24" viewBox="0 0 24 24" fill="none" xmlns="http://www.w3.org/2000/svg">
  <path d="M21.41 11.58L12.41 2.58C12.05 2.22 11.55 2 11 2H4C2.9 2 2 2.9 2 4V11C2 11.55 2.22 12.05 2.59 12.42L11.59 21.42C11.95 21.78 12.45 22 13 22C13.55 22 14.05 21.78 14.41 21.41L21.41 14.41C21.78 14.05 22 13.55 22 13C22 12.45 21.77 11.94 21.41 11.58Z" stroke="currentColor" stroke-width="1.5" stroke-linecap="round" stroke-linejoin="round"/>
  <circle cx="7" cy="7" r="1.5" fill="currentColor"/>
  <path d="M8.5 15.5L15.5 8.5" stroke="currentColor" stroke-width="1.5" stroke-linecap="round"/>
  <circle cx="10" cy="10" r="1.25" stroke="currentColor" stroke-width="1.5"/>
  <circle cx="14" cy="14" r="1.25" stroke="currentColor" stroke-width="1.5"/>
</svg>
