<svg width="24" height="24" viewBox="0 0 24 24" fill="none" xmlns="http://www.w3.org/2000/svg">
  <path d="M21 7H3C2.45 7 2 7.45 2 8V18C2 19.1 2.9 20 4 20H20C21.1 20 22 19.1 22 18V8C22 7.45 21.55 7 21 7Z" stroke="currentColor" stroke-width="1.5" stroke-linecap="round" stroke-linejoin="round"/>
  <path d="M16 14C16.5523 14 17 13.5523 17 13C17 12.4477 16.5523 12 16 12C15.4477 12 15 12.4477 15 13C15 13.5523 15.4477 14 16 14Z" fill="currentColor"/>
  <path d="M20 7V6C20 4.9 19.1 4 18 4H6C4.9 4 4 4.9 4 6V7" stroke="currentColor" stroke-width="1.5" stroke-linecap="round" stroke-linejoin="round"/>
</svg>
